<svg id="Capa_1" data-name="Capa 1" xmlns="http://www.w3.org/2000/svg" viewBox="0 0 512 375"><defs><style>.cls-1{fill:white;}</style></defs><path class="cls-1" d="M447.29,68.5H64.71A64.78,64.78,0,0,0,0,133.2V378.8a64.78,64.78,0,0,0,64.71,64.7H447.29A64.78,64.78,0,0,0,512,378.8V133.2A64.78,64.78,0,0,0,447.29,68.5Zm-10.11,41.73L256,250.18,74.82,110.23Zm10.11,291.54H64.71a23,23,0,0,1-23-23V137.42l201.5,155.65a20.89,20.89,0,0,0,25.52,0l201.5-155.65V378.8A23,23,0,0,1,447.29,401.77Z" transform="translate(0 -68.5)"/></svg>